<?xml version="1.0" encoding="utf-8"?>
<!-- Generator: Adobe Illustrator 27.5.0, SVG Export Plug-In . SVG Version: 6.00 Build 0)  -->
<svg version="1.1" xmlns="http://www.w3.org/2000/svg" xmlns:xlink="http://www.w3.org/1999/xlink" x="0px" y="0px"
	 viewBox="0 0 500 500" style="enable-background:new 0 0 500 500;" xml:space="preserve">
<g id="Background_Simple">
	<g style="opacity:0.4;">
		<path style="fill:#69cdfa;" d="M401.108,63.175c0,0-54.233-40.072-123.568-18.038c-69.334,22.033-97.527,81.71-136.813,123.642
			c-20.573,21.959-51.338,31.114-75.921,48.416c-78.603,55.323-64.944,170.993-2.96,212.037
			c53.66,35.532,119.996,36.472,205.781,4.532c85.785-31.94,147.228-51.574,199.402-134.196
			C519.204,216.946,468.007,117.873,401.108,63.175z"/>
		<path style="opacity:0.8;fill:#38bdf8;" d="M401.108,63.175c0,0-54.233-40.072-123.568-18.038
			c-69.334,22.033-97.527,81.71-136.813,123.642c-20.573,21.959-51.338,31.114-75.921,48.416
			c-78.603,55.323-64.944,170.993-2.96,212.037c53.66,35.532,119.996,36.472,205.781,4.532
			c85.785-31.94,147.228-51.574,199.402-134.196C519.204,216.946,468.007,117.873,401.108,63.175z"/>
	</g>
</g>
<g id="Docs">
	<g style="opacity:0.6;">
		<polygon style="fill:#FFFFFF;stroke:#000000;stroke-linejoin:round;stroke-miterlimit:10;" points="76.611,143.445 29.03,143.445 
			29.03,84.088 69.507,84.088 76.611,90.01 		"/>
		<polygon style="fill:#FFFFFF;stroke:#000000;stroke-linejoin:round;stroke-miterlimit:10;" points="69.507,84.088 69.507,90.111 
			76.611,90.111 		"/>
		<rect x="19.778" y="89.083" width="35.521" height="12.973"/>
		<line style="fill:none;stroke:#000000;stroke-miterlimit:10;" x1="34.295" y1="105.763" x2="72.595" y2="105.763"/>
		<line style="fill:none;stroke:#000000;stroke-miterlimit:10;" x1="34.295" y1="112.867" x2="72.595" y2="112.867"/>
		<line style="fill:none;stroke:#000000;stroke-miterlimit:10;" x1="34.295" y1="119.971" x2="72.595" y2="119.971"/>
		<line style="fill:none;stroke:#000000;stroke-miterlimit:10;" x1="34.295" y1="127.075" x2="72.595" y2="127.075"/>
		<line style="fill:none;stroke:#000000;stroke-miterlimit:10;" x1="34.295" y1="134.179" x2="72.595" y2="134.179"/>
		<g>
			<path style="fill:#FFFFFF;" d="M30.621,100.203v-8.409h-1.725v-0.949h4.479v0.949h-1.725v8.409H30.621z"/>
			<path style="fill:#FFFFFF;" d="M36.408,96.165l-1.565,4.038h-0.989l1.885-4.826l-1.765-4.532h1.083l1.444,3.743l1.457-3.743
				h0.976l-1.751,4.532l1.872,4.826h-1.096L36.408,96.165z"/>
			<path style="fill:#FFFFFF;" d="M41.246,100.203v-8.409h-1.725v-0.949H44v0.949h-1.725v8.409H41.246z"/>
		</g>
	</g>
	<g style="opacity:0.6;">
		<polygon style="fill:#FFFFFF;stroke:#000000;stroke-linejoin:round;stroke-miterlimit:10;" points="463.848,273.999 
			416.268,273.999 416.268,214.642 456.744,214.642 463.848,220.564 		"/>
		<polygon style="fill:#FFFFFF;stroke:#000000;stroke-linejoin:round;stroke-miterlimit:10;" points="456.744,214.642 
			456.744,220.665 463.848,220.665 		"/>
		<rect x="407.015" y="219.637" width="35.521" height="12.973"/>
		<line style="fill:none;stroke:#000000;stroke-miterlimit:10;" x1="421.532" y1="236.316" x2="459.833" y2="236.316"/>
		<line style="fill:none;stroke:#000000;stroke-miterlimit:10;" x1="421.532" y1="243.421" x2="459.833" y2="243.421"/>
		<line style="fill:none;stroke:#000000;stroke-miterlimit:10;" x1="421.532" y1="250.525" x2="459.833" y2="250.525"/>
		<line style="fill:none;stroke:#000000;stroke-miterlimit:10;" x1="421.532" y1="257.629" x2="459.833" y2="257.629"/>
		<line style="fill:none;stroke:#000000;stroke-miterlimit:10;" x1="421.532" y1="264.733" x2="459.833" y2="264.733"/>
		<g>
			<path style="fill:#FFFFFF;" d="M417.858,230.757v-8.409h-1.725v-0.949h4.479v0.949h-1.725v8.409H417.858z"/>
			<path style="fill:#FFFFFF;" d="M423.645,226.719l-1.565,4.038h-0.989l1.885-4.826l-1.765-4.532h1.083l1.445,3.743l1.457-3.743
				h0.976l-1.751,4.532l1.872,4.826h-1.096L423.645,226.719z"/>
			<path style="fill:#FFFFFF;" d="M428.483,230.757v-8.409h-1.725v-0.949h4.479v0.949h-1.725v8.409H428.483z"/>
		</g>
	</g>
<g style="opacity:0.6;">
		<polygon style="fill:#FFFFFF;stroke:#000000;stroke-linejoin:round;stroke-miterlimit:10;" points="308.312,375.389 
			260.732,375.389 260.732,316.032 301.208,316.032 308.312,321.954 		"/>
		<polygon style="fill:#FFFFFF;stroke:#000000;stroke-linejoin:round;stroke-miterlimit:10;" points="301.208,316.032 
			301.208,322.055 308.312,322.055 		"/>
		<rect x="251.479" y="321.027" width="35.521" height="12.973"/>
		<line style="fill:none;stroke:#000000;stroke-miterlimit:10;" x1="265.996" y1="337.707" x2="304.297" y2="337.707"/>
		<line style="fill:none;stroke:#000000;stroke-miterlimit:10;" x1="265.996" y1="344.811" x2="304.297" y2="344.811"/>
		<line style="fill:none;stroke:#000000;stroke-miterlimit:10;" x1="265.996" y1="351.915" x2="304.297" y2="351.915"/>
		<line style="fill:none;stroke:#000000;stroke-miterlimit:10;" x1="265.996" y1="359.019" x2="304.297" y2="359.019"/>
		<line style="fill:none;stroke:#000000;stroke-miterlimit:10;" x1="265.996" y1="366.123" x2="304.297" y2="366.123"/>
		<g>
			<path style="fill:#FFFFFF;" d="M262.322,332.147v-8.409h-1.725v-0.949h4.479v0.949h-1.725v8.409H262.322z"/>
			<path style="fill:#FFFFFF;" d="M268.11,328.109l-1.565,4.038h-0.989l1.885-4.827l-1.765-4.532h1.083l1.444,3.743l1.457-3.743
				h0.976l-1.751,4.532l1.872,4.827h-1.096L268.11,328.109z"/>
			<path style="fill:#FFFFFF;" d="M272.948,332.147v-8.409h-1.725v-0.949h4.479v0.949h-1.725v8.409H272.948z"/>
		</g>
	</g>
	<g style="opacity:0.6;">
		<polygon style="fill:#FFFFFF;stroke:#000000;stroke-linejoin:round;stroke-miterlimit:10;" points="96.323,287.446 
			32.245,287.446 32.245,207.508 86.756,207.508 96.323,215.483 		"/>
		<polygon style="fill:#FFFFFF;stroke:#000000;stroke-linejoin:round;stroke-miterlimit:10;" points="86.756,207.508 
			86.756,215.619 96.323,215.619 		"/>
		<rect x="19.784" y="214.235" width="47.837" height="17.471"/>
		<line style="fill:none;stroke:#000000;stroke-miterlimit:10;" x1="39.335" y1="236.698" x2="90.915" y2="236.698"/>
		<line style="fill:none;stroke:#000000;stroke-miterlimit:10;" x1="39.335" y1="246.265" x2="90.915" y2="246.265"/>
		<line style="fill:none;stroke:#000000;stroke-miterlimit:10;" x1="39.335" y1="255.832" x2="90.915" y2="255.832"/>
		<line style="fill:none;stroke:#000000;stroke-miterlimit:10;" x1="39.335" y1="265.4" x2="90.915" y2="265.4"/>
		<line style="fill:none;stroke:#000000;stroke-miterlimit:10;" x1="39.335" y1="274.967" x2="90.915" y2="274.967"/>
		<g>
			<path style="fill:#FFFFFF;" d="M35.322,216.606c1.981,0,2.827,1.17,2.827,3.079v1.512c0,1.999-0.937,3.043-2.935,3.043h-1.242
				v4.97h-1.405v-12.604H35.322z M35.214,222.98c1.044,0,1.548-0.486,1.548-1.693v-1.674c0-1.152-0.414-1.729-1.44-1.729h-1.35
				v5.096H35.214z"/>
			<path style="fill:#FFFFFF;" d="M42.251,216.606c1.963,0,2.863,1.188,2.863,3.133v6.355c0,1.927-0.9,3.115-2.863,3.115h-2.952
				v-12.604H42.251z M42.234,227.932c1.008,0,1.494-0.63,1.494-1.782v-6.482c0-1.152-0.486-1.782-1.513-1.782h-1.512v10.047H42.234z
				"/>
			<path style="fill:#FFFFFF;" d="M50.73,222.475v1.278h-2.899v5.456h-1.405v-12.604h5.006v1.278h-3.601v4.591H50.73z"/>
		</g>
	</g>
	<g style="opacity:0.6;">
		<polygon style="fill:#FFFFFF;stroke:#000000;stroke-linejoin:round;stroke-miterlimit:10;" points="70,396.803 38.421,396.803 
			38.421,357.408 65.285,357.408 70,361.339 		"/>
		<polygon style="fill:#FFFFFF;stroke:#000000;stroke-linejoin:round;stroke-miterlimit:10;" points="65.285,357.408 
			65.285,361.406 70,361.406 		"/>
		<rect x="32.28" y="360.724" width="23.575" height="8.61"/>
		<line style="fill:none;stroke:#000000;stroke-miterlimit:10;" x1="41.915" y1="371.793" x2="67.335" y2="371.793"/>
		<line style="fill:none;stroke:#000000;stroke-miterlimit:10;" x1="41.915" y1="376.508" x2="67.335" y2="376.508"/>
		<line style="fill:none;stroke:#000000;stroke-miterlimit:10;" x1="41.915" y1="381.223" x2="67.335" y2="381.223"/>
		<line style="fill:none;stroke:#000000;stroke-miterlimit:10;" x1="41.915" y1="385.938" x2="67.335" y2="385.938"/>
		<line style="fill:none;stroke:#000000;stroke-miterlimit:10;" x1="41.915" y1="390.653" x2="67.335" y2="390.653"/>
		<g>
			<path style="fill:#FFFFFF;" d="M39.938,361.892c0.977,0,1.393,0.577,1.393,1.517v0.745c0,0.985-0.461,1.5-1.446,1.5h-0.612v2.449
				H38.58v-6.211H39.938z M39.885,365.033c0.514,0,0.763-0.24,0.763-0.835v-0.825c0-0.568-0.204-0.852-0.71-0.852h-0.665v2.511
				H39.885z"/>
			<path style="fill:#FFFFFF;" d="M43.353,361.892c0.967,0,1.411,0.586,1.411,1.544v3.132c0,0.949-0.444,1.535-1.411,1.535h-1.455
				v-6.211H43.353z M43.344,367.473c0.497,0,0.736-0.31,0.736-0.878V363.4c0-0.568-0.24-0.878-0.745-0.878H42.59v4.951H43.344z"/>
			<path style="fill:#FFFFFF;" d="M47.531,364.784v0.63h-1.428v2.689H45.41v-6.211h2.467v0.63h-1.774v2.262H47.531z"/>
		</g>
	</g>
	<g style="opacity:0.6;">
		<polygon style="fill:#FFFFFF;stroke:#000000;stroke-linejoin:round;stroke-miterlimit:10;" points="471.469,104.389 
			439.89,104.389 439.89,64.994 466.754,64.994 471.469,68.924 		"/>
		<polygon style="fill:#FFFFFF;stroke:#000000;stroke-linejoin:round;stroke-miterlimit:10;" points="466.754,64.994 
			466.754,68.991 471.469,68.991 		"/>
		<rect x="433.749" y="68.309" width="23.575" height="8.61"/>
		<line style="fill:none;stroke:#000000;stroke-miterlimit:10;" x1="443.384" y1="79.379" x2="468.804" y2="79.379"/>
		<line style="fill:none;stroke:#000000;stroke-miterlimit:10;" x1="443.384" y1="84.094" x2="468.804" y2="84.094"/>
		<line style="fill:none;stroke:#000000;stroke-miterlimit:10;" x1="443.384" y1="88.809" x2="468.804" y2="88.809"/>
		<line style="fill:none;stroke:#000000;stroke-miterlimit:10;" x1="443.384" y1="93.524" x2="468.804" y2="93.524"/>
		<line style="fill:none;stroke:#000000;stroke-miterlimit:10;" x1="443.384" y1="98.239" x2="468.804" y2="98.239"/>
		<g>
			<path style="fill:#FFFFFF;" d="M441.407,69.478c0.977,0,1.393,0.577,1.393,1.518v0.745c0,0.985-0.462,1.5-1.446,1.5h-0.612v2.449
				h-0.692v-6.211H441.407z M441.354,72.619c0.514,0,0.763-0.24,0.763-0.834V70.96c0-0.568-0.204-0.852-0.71-0.852h-0.665v2.511
				H441.354z"/>
			<path style="fill:#FFFFFF;" d="M444.822,69.478c0.967,0,1.411,0.586,1.411,1.544v3.132c0,0.95-0.444,1.535-1.411,1.535h-1.455
				v-6.211H444.822z M444.813,75.059c0.497,0,0.736-0.31,0.736-0.878v-3.195c0-0.568-0.24-0.878-0.745-0.878h-0.745v4.951H444.813z"
				/>
			<path style="fill:#FFFFFF;" d="M449,72.37V73h-1.428v2.689h-0.693v-6.211h2.467v0.63h-1.774v2.262H449z"/>
		</g>
	</g>
</g>
<g id="Screen">
	<g>
		<rect x="81.024" y="49.586" style="fill:#263238;stroke:#263238;stroke-miterlimit:10;" width="334.456" height="261.414"/>
		<g>
			<g>
				<rect x="91.867" y="39.358" style="fill:#92E3A9;" width="335.466" height="262.031"/>
				
					<rect x="91.867" y="39.358" style="fill:#FFFFFF;stroke:#263238;stroke-linecap:round;stroke-linejoin:round;stroke-miterlimit:10;" width="335.466" height="262.031"/>
				<g>
					
						<rect x="101" y="76.495" style="fill:#FFFFFF;stroke:#263238;stroke-linecap:round;stroke-linejoin:round;stroke-miterlimit:10;" width="71" height="45"/>
					<line style="fill:none;stroke:#263238;stroke-miterlimit:10;" x1="120.5" y1="96" x2="150.5" y2="96"/>
					<line style="fill:none;stroke:#263238;stroke-miterlimit:10;" x1="113" y1="103.5" x2="162.5" y2="103.5"/>
				</g>
				<g>
					
						<rect x="101" y="129.995" style="fill:#FFFFFF;stroke:#263238;stroke-linecap:round;stroke-linejoin:round;stroke-miterlimit:10;" width="71" height="45"/>
					<g>
						<line style="fill:none;stroke:#263238;stroke-miterlimit:10;" x1="108.394" y1="140.673" x2="133.295" y2="140.673"/>
						<line style="fill:none;stroke:#263238;stroke-miterlimit:10;" x1="108.394" y1="146.633" x2="133.295" y2="146.633"/>
						<line style="fill:none;stroke:#263238;stroke-miterlimit:10;" x1="108.394" y1="152.592" x2="133.295" y2="152.592"/>
						<line style="fill:none;stroke:#263238;stroke-miterlimit:10;" x1="108.394" y1="158.552" x2="133.295" y2="158.552"/>
						<line style="fill:none;stroke:#263238;stroke-miterlimit:10;" x1="108.394" y1="164.512" x2="133.295" y2="164.512"/>
					</g>
					<g>
						<line style="fill:none;stroke:#263238;stroke-miterlimit:10;" x1="139.215" y1="140.673" x2="164.116" y2="140.673"/>
						<line style="fill:none;stroke:#263238;stroke-miterlimit:10;" x1="139.215" y1="146.633" x2="164.116" y2="146.633"/>
						<line style="fill:none;stroke:#263238;stroke-miterlimit:10;" x1="139.215" y1="152.592" x2="164.116" y2="152.592"/>
						<line style="fill:none;stroke:#263238;stroke-miterlimit:10;" x1="139.215" y1="158.552" x2="164.116" y2="158.552"/>
						<line style="fill:none;stroke:#263238;stroke-miterlimit:10;" x1="139.215" y1="164.512" x2="164.116" y2="164.512"/>
					</g>
				</g>
				<g>
					
						<rect x="101" y="183.495" style="fill:#FFFFFF;stroke:#263238;stroke-linecap:round;stroke-linejoin:round;stroke-miterlimit:10;" width="71" height="45"/>
					<g>
						<line style="fill:none;stroke:#263238;stroke-miterlimit:10;" x1="108.394" y1="194.173" x2="133.295" y2="194.173"/>
						<line style="fill:none;stroke:#263238;stroke-miterlimit:10;" x1="108.394" y1="200.133" x2="133.295" y2="200.133"/>
						<line style="fill:none;stroke:#263238;stroke-miterlimit:10;" x1="108.394" y1="206.092" x2="133.295" y2="206.092"/>
						<line style="fill:none;stroke:#263238;stroke-miterlimit:10;" x1="108.394" y1="212.052" x2="133.295" y2="212.052"/>
						<line style="fill:none;stroke:#263238;stroke-miterlimit:10;" x1="108.394" y1="218.012" x2="133.295" y2="218.012"/>
					</g>
					<g>
						<line style="fill:none;stroke:#263238;stroke-miterlimit:10;" x1="139.215" y1="194.173" x2="164.116" y2="194.173"/>
						<line style="fill:none;stroke:#263238;stroke-miterlimit:10;" x1="139.215" y1="200.133" x2="164.116" y2="200.133"/>
						<line style="fill:none;stroke:#263238;stroke-miterlimit:10;" x1="139.215" y1="206.092" x2="164.116" y2="206.092"/>
						<line style="fill:none;stroke:#263238;stroke-miterlimit:10;" x1="139.215" y1="212.052" x2="164.116" y2="212.052"/>
						<line style="fill:none;stroke:#263238;stroke-miterlimit:10;" x1="139.215" y1="218.012" x2="164.116" y2="218.012"/>
					</g>
				</g>
				<g>
					
						<rect x="101" y="236.995" style="fill:#FFFFFF;stroke:#263238;stroke-linecap:round;stroke-linejoin:round;stroke-miterlimit:10;" width="71" height="45"/>
					<g>
						<line style="fill:none;stroke:#263238;stroke-miterlimit:10;" x1="108.394" y1="247.673" x2="133.295" y2="247.673"/>
						<line style="fill:none;stroke:#263238;stroke-miterlimit:10;" x1="108.394" y1="253.633" x2="133.295" y2="253.633"/>
						<line style="fill:none;stroke:#263238;stroke-miterlimit:10;" x1="108.394" y1="259.592" x2="133.295" y2="259.592"/>
						<line style="fill:none;stroke:#263238;stroke-miterlimit:10;" x1="108.394" y1="265.552" x2="133.295" y2="265.552"/>
						<line style="fill:none;stroke:#263238;stroke-miterlimit:10;" x1="108.394" y1="271.512" x2="133.295" y2="271.512"/>
					</g>
					<g>
						<line style="fill:none;stroke:#263238;stroke-miterlimit:10;" x1="139.215" y1="247.673" x2="164.116" y2="247.673"/>
						<line style="fill:none;stroke:#263238;stroke-miterlimit:10;" x1="139.215" y1="253.633" x2="164.116" y2="253.633"/>
						<line style="fill:none;stroke:#263238;stroke-miterlimit:10;" x1="139.215" y1="259.592" x2="164.116" y2="259.592"/>
						<line style="fill:none;stroke:#263238;stroke-miterlimit:10;" x1="139.215" y1="265.552" x2="164.116" y2="265.552"/>
						<line style="fill:none;stroke:#263238;stroke-miterlimit:10;" x1="139.215" y1="271.512" x2="164.116" y2="271.512"/>
					</g>
				</g>
				
					<rect x="182" y="39.358" style="fill:#B8B8B8;stroke:#263238;stroke-linecap:round;stroke-linejoin:round;stroke-miterlimit:10;" width="245.333" height="262.031"/>
				
					<rect x="189" y="89" style="fill:#FFFFFF;stroke:#263238;stroke-linecap:round;stroke-linejoin:round;stroke-miterlimit:10;" width="222" height="151"/>
				<line style="fill:none;stroke:#263238;stroke-miterlimit:10;" x1="240.577" y1="148.935" x2="362.424" y2="148.935"/>
				<line style="fill:none;stroke:#263238;stroke-miterlimit:10;" x1="224.022" y1="162.179" x2="378.979" y2="162.179"/>
			</g>
			<rect x="418.664" y="39.358" style="fill:#DBDBDB;stroke:#263238;stroke-miterlimit:10;" width="8.669" height="262.031"/>
			<rect x="418.664" y="120.539" style="fill:#878787;" width="8.669" height="70.805"/>
			
				<rect x="91.867" y="39.358" style="fill:#38bdf8;stroke:#263238;stroke-linecap:round;stroke-linejoin:round;stroke-miterlimit:10;" width="335.466" height="17.016"/>
			<rect x="113.935" y="42.259" style="fill:#FFFFFF;" width="215.677" height="9.602"/>
			<g>
				<line style="fill:none;stroke:#263238;stroke-miterlimit:10;" x1="410.995" y1="62.4" x2="394.336" y2="62.4"/>
				<line style="fill:none;stroke:#263238;stroke-miterlimit:10;" x1="410.995" y1="67.526" x2="394.336" y2="67.526"/>
				<line style="fill:none;stroke:#263238;stroke-miterlimit:10;" x1="410.995" y1="72.652" x2="394.336" y2="72.652"/>
			</g>
		</g>
	</g>
</g>
<g id="Plant">
	<g>
		<g>
			
				<line style="fill:none;stroke:#263238;stroke-linecap:round;stroke-linejoin:round;stroke-miterlimit:10;" x1="431.001" y1="408.438" x2="435.055" y2="396.856"/>
			
				<line style="fill:none;stroke:#263238;stroke-linecap:round;stroke-linejoin:round;stroke-miterlimit:10;" x1="431.291" y1="377.167" x2="431.291" y2="420.309"/>
			<g>
				<path style="fill:#38bdf8;stroke:#263238;stroke-linecap:round;stroke-linejoin:round;stroke-miterlimit:10;" d="
					M424.653,399.555c0,0-6.01-6.557-12.02-5.464c-6.01,1.093-8.742,8.196-8.742,12.567s6.01,18.577,6.01,18.577
					s4.371-4.917,14.206-12.02C433.941,406.111,434.487,399.008,424.653,399.555z"/>
				<path style="fill:none;stroke:#263238;stroke-linecap:round;stroke-linejoin:round;stroke-miterlimit:10;" d="M424.653,399.555
					c0,0-7.649,3.824-12.02,12.567"/>
			</g>
			<g>
				<path style="fill:#38bdf8;stroke:#263238;stroke-linecap:round;stroke-linejoin:round;stroke-miterlimit:10;" d="
					M434.446,391.857c0,0,4.966-5.389,9.915-4.476c4.949,0.913,7.185,6.771,7.175,10.372c-0.009,3.601-4.992,15.292-4.992,15.292
					s-3.59-4.061-11.678-9.934C426.779,397.238,426.344,391.385,434.446,391.857z"/>
				<path style="fill:none;stroke:#263238;stroke-linecap:round;stroke-linejoin:round;stroke-miterlimit:10;" d="M434.446,391.857
					c0,0,6.294,3.168,9.876,10.38"/>
			</g>
			
				<line style="fill:none;stroke:#263238;stroke-linecap:round;stroke-linejoin:round;stroke-miterlimit:10;" x1="430.422" y1="384.695" x2="437.95" y2="373.693"/>
			<g>
				<path style="fill:#38bdf8;stroke:#263238;stroke-linecap:round;stroke-linejoin:round;stroke-miterlimit:10;" d="
					M429.161,381.514c0,0-0.123-7.327-4.426-9.937c-4.303-2.611-9.869,0.276-12.257,2.972c-2.388,2.695-6.445,14.739-6.445,14.739
					s5.382-0.643,15.328,0.351C431.305,390.632,435.524,386.551,429.161,381.514z"/>
				<path style="fill:none;stroke:#263238;stroke-linecap:round;stroke-linejoin:round;stroke-miterlimit:10;" d="M429.161,381.514
					c0,0-6.806-1.822-14.279,1.18"/>
			</g>
			<g>
				<path style="fill:#38bdf8;stroke:#263238;stroke-linecap:round;stroke-linejoin:round;stroke-miterlimit:10;" d="
					M435.634,371.692c0,0,0.091-5.393,3.258-7.315c3.167-1.922,7.264,0.203,9.023,2.188c1.758,1.984,4.744,10.849,4.744,10.849
					s-3.962-0.474-11.283,0.258C434.055,378.404,430.95,375.4,435.634,371.692z"/>
				<path style="fill:none;stroke:#263238;stroke-linecap:round;stroke-linejoin:round;stroke-miterlimit:10;" d="M435.634,371.692
					c0,0,5.01-1.341,10.51,0.869"/>
			</g>
		</g>
		<polygon style="fill:#FFFFFF;stroke:#263238;stroke-linecap:round;stroke-linejoin:round;stroke-miterlimit:10;" points="
			449.689,416.607 410.878,416.607 414.811,457.013 445.757,457.013 		"/>
		<g>
			<path style="fill:#263238;stroke:#263238;stroke-linecap:round;stroke-linejoin:round;stroke-miterlimit:10;" d="
				M439.398,434.207c0,0.96,0.778,1.737,1.737,1.737c0.959,0,1.737-0.778,1.737-1.737c0-0.959-0.778-1.737-1.737-1.737
				C440.176,432.47,439.398,433.248,439.398,434.207z"/>
			<path style="fill:#263238;stroke:#263238;stroke-linecap:round;stroke-linejoin:round;stroke-miterlimit:10;" d="
				M433.028,434.207c0,0.96,0.778,1.737,1.737,1.737c0.959,0,1.737-0.778,1.737-1.737c0-0.959-0.778-1.737-1.737-1.737
				C433.806,432.47,433.028,433.248,433.028,434.207z"/>
			<polygon style="fill:#263238;stroke:#263238;stroke-linecap:round;stroke-linejoin:round;stroke-miterlimit:10;" points="
				412.169,429.864 448.399,429.864 448.568,428.127 411.999,428.127 			"/>
			<polygon style="fill:#263238;stroke:#263238;stroke-linecap:round;stroke-linejoin:round;stroke-miterlimit:10;" points="
				446.849,445.789 447.582,438.261 412.986,438.261 413.719,445.789 			"/>
			<path style="fill:#263238;stroke:#263238;stroke-linecap:round;stroke-linejoin:round;stroke-miterlimit:10;" d="
				M445.768,434.207c0,0.96,0.778,1.737,1.737,1.737c0.105,0,0.206-0.013,0.305-0.031l0.323-3.322
				c-0.195-0.076-0.406-0.122-0.629-0.122C446.546,432.47,445.768,433.248,445.768,434.207z"/>
			<path style="fill:#263238;stroke:#263238;stroke-linecap:round;stroke-linejoin:round;stroke-miterlimit:10;" d="
				M426.658,434.207c0,0.96,0.778,1.737,1.737,1.737c0.959,0,1.737-0.778,1.737-1.737c0-0.959-0.778-1.737-1.737-1.737
				C427.436,432.47,426.658,433.248,426.658,434.207z"/>
			<path style="fill:#263238;stroke:#263238;stroke-linecap:round;stroke-linejoin:round;stroke-miterlimit:10;" d="
				M413.918,434.207c0,0.96,0.778,1.737,1.737,1.737s1.737-0.778,1.737-1.737c0-0.959-0.778-1.737-1.737-1.737
				S413.918,433.248,413.918,434.207z"/>
			<path style="fill:#263238;stroke:#263238;stroke-linecap:round;stroke-linejoin:round;stroke-miterlimit:10;" d="
				M420.288,434.207c0,0.96,0.778,1.737,1.737,1.737c0.96,0,1.737-0.778,1.737-1.737c0-0.959-0.778-1.737-1.737-1.737
				C421.066,432.47,420.288,433.248,420.288,434.207z"/>
		</g>
	</g>
</g>
<g id="Character">
	<g>
		<g>
			<path style="fill:#38bdf8 ;stroke:#263238;stroke-miterlimit:10;" d="M166.268,457.105c4.799-5.917,13.376-16.359,16.32-19.093
				c4.173-3.875,8.048-8.644,8.048-8.644s-5.067,9.836,3.577,17.586c8.644,7.75,34.277,1.788,39.94-2.385
				c5.663-4.173,6.259-14.903,1.192-30.7s-12.221-45.007-11.922-55.141c0.298-10.134-6.259-38.748-9.24-46.497
				c-2.981-7.75-15.201-13.413-27.72-16.095c-12.519-2.682-46.199,11.326-46.199,11.326l-6.855,2.683
				c0,0-28.018,15.499-35.469,21.758c-7.451,6.259-3.875,23.547-5.663,40.238c-1.788,16.691-1.788,36.065-1.788,36.065
				S73.2,423.407,60.682,440.694c-6.022,8.315-9.487,13.384-11.467,16.411H166.268z"/>
			<path style="fill:#FFFFFF;stroke:#263238;stroke-miterlimit:10;" d="M227.745,424.815c0,0-9.952-2.342-20.489,4.683
				c-10.537,7.025-7.61,17.562,1.756,19.904c9.367,2.342,21.66,2.342,28.1-7.61S232.428,424.23,227.745,424.815z"/>
			<path style="fill:#FFFFFF;stroke:#263238;stroke-miterlimit:10;" d="M230.228,424.733c0,0-7.769-1.828-15.995,3.656
				c-8.226,5.484-5.941,13.71,1.371,15.538c7.312,1.828,16.91,1.828,21.937-5.941C242.567,430.217,233.884,424.276,230.228,424.733z
				"/>
			<path style="fill:none;stroke:#263238;stroke-miterlimit:10;" d="M207.085,358.068c0.335-5.44,0.54-9.145,0.54-9.474"/>
			<path style="fill:none;stroke:#263238;stroke-miterlimit:10;" d="M190.636,429.368c0,0,10.73-10.432,12.518-22.355
				c1.102-7.349,2.545-27.383,3.489-41.95"/>
			<path style="fill:none;stroke:#263238;stroke-miterlimit:10;" d="M219.767,378.272c-2.698,8.683-7.698,21.705-15.42,30.53"/>
			<path style="fill:none;stroke:#263238;stroke-miterlimit:10;" d="M222.23,369.16c0,0-0.424,2.004-1.313,5.203"/>
			<path style="fill:none;stroke:#263238;stroke-miterlimit:10;" d="M221.294,403.145c-3.974,4.512-10.199,10.51-18.438,15.194"/>
			<path style="fill:none;stroke:#263238;stroke-miterlimit:10;" d="M226.403,396.581c0,0-1.213,1.906-3.556,4.743"/>
			<path style="fill:none;stroke:#263238;stroke-miterlimit:10;" d="M236.835,421.917c0,0-13.711-5.067-30.402,0.596
				c-16.691,5.663-14.903,18.48-13.413,20.566"/>
		</g>
		<path style="fill:#263238;stroke:#263238;stroke-miterlimit:10;" d="M191.595,214.214c0,0,0-3.512-4.83-10.976
			c-4.83-7.464-29.417-4.391-37.759,3.951s3.512,18.88-1.756,25.026c-5.269,6.147-22.831,3.073-28.539,14.05
			c-5.708,10.977,8.781,16.245,11.855,20.197c3.073,3.952-5.269,5.269-4.391,9.22c0.878,3.952,14.489,4.391,14.489,4.391
			s-8.781,2.634-4.391,6.147c4.391,3.513,12.294,7.025,21.075,6.586c8.781-0.439,6.586-17.562,5.708-30.295
			c-0.878-12.733,10.537-26.783,23.709-25.465c13.172,1.317,27.222,16.245,25.026,22.831c-2.195,6.586,3.512-1.317,15.367-8.781
			s6.586-22.831,3.951-25.904c-2.634-3.073-11.415-3.952-13.172-9.659c-1.756-5.708-5.708-11.415-13.172-11.415
			C197.303,204.116,199.059,213.775,191.595,214.214z"/>
		<path style="fill:#FFFFFF;stroke:#263238;stroke-miterlimit:10;" d="M153.975,293.154c0,0-5.663,1.49-8.048,4.471
			c-2.385,2.981-11.923,8.346-12.519,12.518c-0.596,4.173,2.981,25.633,10.134,34.277c7.153,8.644,10.73,9.24,10.73,9.24
			s2.087-8.346,3.577-8.942s15.201,8.048,15.201,8.048s2.384-14.009,3.875-14.009c1.49,0,6.259,4.769,6.259,4.769
			s1.788-11.922,0.596-21.162c-1.192-9.24-8.942-20.566-14.605-24.441C163.512,294.049,159.042,290.472,153.975,293.154z"/>
		<path style="fill:#FFFFFF;stroke:#263238;stroke-miterlimit:10;" d="M156.91,281.829l-10.976,26.344
			c0,0,2.829,12.273,6.551,20.153c5.067,10.73,17.597,15.849,17.597,15.849s-0.439-9.22,3.952-18.001
			c4.391-8.781,8.781-14.489,8.781-14.489S163.057,292.366,156.91,281.829z"/>
		<path style="fill:#263238;stroke:#263238;stroke-miterlimit:10;" d="M159.747,291.816c0,0,5.052,28.871,12.27,37.893l6.857-12.992
			l-18.044-28.149L159.747,291.816z"/>
		<path style="fill:#FFFFFF;stroke:#263238;stroke-miterlimit:10;" d="M155.465,377.505c0,0,17.586-45.901,19.97-48.584
			c2.385-2.683,7.75-7.451,10.134-10.73c2.384-3.279,8.942-11.624,11.326-11.624s8.048,2.086,10.73,2.682
			c2.683,0.596,4.471,1.49,4.769,5.961c0.298,4.471-3.577,4.769-3.577,4.769l-1.49-1.788c0,0-10.73,16.095-14.009,18.182
			c-3.279,2.086-6.259,2.981-6.259,2.981l-14.307,53.353L155.465,377.505z"/>
		<g>
			<path style="fill:#FFFFFF;stroke:#263238;stroke-miterlimit:10;" d="M217.503,244.394c0,0,4.167,3.473,1.389,15.279
				c-2.778,11.807-3.473,17.71-3.473,24.655s-2.083,16.669-7.987,22.919c-5.903,6.251-13.196,15.279-21.877,14.932
				c-13.748-0.55-20.488-19.447-25.003-28.128c-4.514-8.681-5.556-20.488-5.556-25.35c0-4.862,0.695-16.321,6.945-25.003
				c6.251-8.681,23.266-12.154,30.559-11.112C199.793,233.629,208.822,234.671,217.503,244.394z"/>
			<path style="fill:#263238;stroke:#263238;stroke-miterlimit:10;" d="M158.122,275.647c0,0,1.389-4.862,7.64-7.64
				s10.07-7.64,7.987-12.154c-2.084-4.514-1.042-9.029,7.987-11.46c9.029-2.431,11.46,6.598,20.141,5.209
				c8.681-1.389,11.112-4.862,15.627-2.778c4.514,2.083,2.431,7.987,2.431,7.987s5.556-10.071-5.209-21.53
				c-10.765-11.46-36.809-15.627-54.867-2.431c-18.057,13.196-7.64,44.102-7.64,44.102S153.26,276.342,158.122,275.647z"/>
			<polyline style="fill:none;stroke:#263238;stroke-miterlimit:10;" points="201.53,281.551 200.488,301.692 193.195,298.914 			
				"/>
			<path style="fill:none;stroke:#263238;stroke-miterlimit:10;" d="M195.973,308.984c0,0-6.945,1.042-10.07-3.82"/>
			<path style="fill:#263238;" d="M188.309,281.336c-0.323,1.988-1.429,3.462-2.47,3.293c-1.041-0.169-1.623-1.918-1.3-3.905
				c0.323-1.988,1.429-3.462,2.47-3.293C188.05,277.6,188.632,279.349,188.309,281.336z"/>
			<path style="fill:#263238;" d="M210.558,281.898c-0.323,1.988-1.429,3.462-2.47,3.293c-1.041-0.169-1.623-1.918-1.3-3.905
				c0.323-1.988,1.429-3.462,2.47-3.293C210.299,278.162,210.881,279.91,210.558,281.898z"/>
			<path style="fill:none;stroke:#263238;stroke-width:2;stroke-linecap:round;stroke-miterlimit:10;" d="M179.436,272.269
				c0,0,7.469-6.505,13.493-1.446"/>
			<path style="fill:none;stroke:#263238;stroke-width:2;stroke-linecap:round;stroke-miterlimit:10;" d="M205.699,270.823
				c0,0,5.06-4.337,9.397-0.241"/>
			<g>
				<path style="fill:none;stroke:#263238;stroke-width:2;stroke-miterlimit:10;" d="M197.748,276.606
					c0,0-10.602-1.687-26.986,0.964c0,0-1.446,11.083,6.264,15.902c7.71,4.819,15.179,0.241,17.107-2.41
					C197.947,285.819,197.748,276.606,197.748,276.606z"/>
				<path style="fill:none;stroke:#263238;stroke-width:2;stroke-miterlimit:10;" d="M222.081,275.09c0,0-7.584-1.612-19.305,0.921
					c0,0-1.034,10.595,4.481,15.202c5.516,4.607,10.859,0.23,12.238-2.303C222.224,283.898,222.081,275.09,222.081,275.09z"/>
				<path style="fill:none;stroke:#263238;stroke-width:2;stroke-miterlimit:10;" d="M197.748,276.606c0,0,1.144-3.117,5.029-0.595"
					/>
				
					<line style="fill:none;stroke:#263238;stroke-width:2;stroke-miterlimit:10;" x1="154.619" y1="271.064" x2="170.762" y2="277.57"/>
			</g>
			<path style="fill:#FFFFFF;stroke:#263238;stroke-miterlimit:10;" d="M159.511,277.384c0,0-2.431-14.238-9.029-7.292
				c-6.598,6.945-0.694,13.89,2.431,17.016c3.125,3.125,6.945,0,6.945,0"/>
		</g>
		<g>
			<path style="fill:#38bdf8 ;stroke:#263238;stroke-miterlimit:10;" d="M133.493,347.541c0,0,6.472,11.187,8.559,25.493
				c2.086,14.307,1.788,16.99,1.788,16.99l10.432-12.519c0,0,16.99,11.922,19.672,15.797c2.683,3.875,2.981,5.067,2.981,5.067
				s0,23.249-9.836,37.257c-9.836,14.009-14.605,14.009-24.143,14.009c-9.538,0-21.758-8.942-28.316-23.845
				c-6.557-14.903-11.922-36.661-13.115-38.748c-1.192-2.086-5.067-14.009-5.067-14.009"/>
			<path style="fill:none;stroke:#263238;stroke-miterlimit:10;" d="M129.576,407.493c-1.084,1.272-2.026,2.348-2.725,3.097"/>
			<path style="fill:none;stroke:#263238;stroke-miterlimit:10;" d="M143.84,390.024c0,0-5.575,7.001-10.568,13.051"/>
			<path style="fill:#FFFFFF;stroke:#263238;stroke-miterlimit:10;" d="M145.331,388.534c0,0,8.346,2.086,18.48,8.048
				c10.134,5.961,11.028,12.519,14.009,10.134c2.981-2.384,5.365-9.836,2.384-14.009c-2.981-4.173-12.22-14.009-18.778-16.989
				c-6.557-2.981-9.24-1.192-11.326,3.279C148.013,383.467,143.244,385.851,145.331,388.534z"/>
			<path style="fill:none;stroke:#263238;stroke-miterlimit:10;" d="M144.954,412.928c0.21,3.437,0.601,6.455,1.271,8.392"/>
			<path style="fill:none;stroke:#263238;stroke-miterlimit:10;" d="M145.331,388.534c0,0-0.714,9.99-0.563,19.302"/>
			<path style="fill:none;stroke:#263238;stroke-miterlimit:10;" d="M155.465,393.601c0,0,2.086,11.624,4.471,16.691"/>
		</g>
		<g>
			<path style="fill:#FFFFFF;stroke:#263238;stroke-miterlimit:10;" d="M226.105,422.513c0,0-10.134,17.884-8.644,19.97
				s34.575,0,34.575,0l1.788-7.154c0,0,6.855,2.683,12.22,2.683c5.365,0,1.192-1.49-0.596-3.279
				c-1.788-1.788-12.22-8.346-13.115-8.942C251.44,425.195,234.153,420.724,226.105,422.513z"/>
			<path style="fill:#FFFFFF;stroke:#263238;stroke-miterlimit:10;" d="M247.704,420.451c0,0,4.791-1.437,6.068,1.597
				c1.277,3.034,0.639,15.969,0.16,19.323c-0.479,3.353-2.715,3.194-3.673,0c-0.958-3.194-3.194-20.441-3.194-20.441
				L247.704,420.451z"/>
			<path style="fill:#FFFFFF;stroke:#263238;stroke-miterlimit:10;" d="M237.643,421.888c0,0,7.186-4.95,9.262-2.395
				c2.076,2.555,3.992,22.676,4.631,24.114c0.639,1.437-2.715,2.555-3.992,1.118c-1.278-1.437-4.951-8.783-6.068-11.498
				C240.358,430.511,237.643,421.888,237.643,421.888z"/>
			<path style="fill:#FFFFFF;stroke:#263238;stroke-miterlimit:10;" d="M223.43,427.318c0,0,3.992-7.346,7.346-9.422
				c3.354-2.076,7.026,1.757,8.783,4.631c1.757,2.874,3.194,10.38,3.992,14.053c0.798,3.673,3.034,7.825,1.757,8.304
				c-1.278,0.479-6.228-3.673-7.665-5.909c-1.437-2.236-4.951-10.859-4.951-10.859"/>
			<path style="fill:#FFFFFF;stroke:#263238;stroke-miterlimit:10;" d="M229.978,441.211c0,0-5.749-5.589-7.665-7.346
				c-1.916-1.757-4.631-2.555-6.547-0.479c-1.916,2.076-2.874,4.631,0,7.346c2.874,2.715,9.741,6.228,14.213,6.228
				c4.471,0,3.673-2.236,2.555-3.513C231.415,442.169,229.978,441.211,229.978,441.211z"/>
		</g>
	</g>
</g>
<g id="Device">
	<g>
		
			<rect x="173.09" y="451.019" transform="matrix(-1 -1.224647e-16 1.224647e-16 -1 555.7275 908.0321)" style="fill:#B8B8B8;stroke:#263238;stroke-linecap:round;stroke-linejoin:round;stroke-miterlimit:10;" width="209.548" height="5.994"/>
		
			<rect x="173.09" y="451.019" transform="matrix(-1 -1.224647e-16 1.224647e-16 -1 419.7396 908.0321)" style="fill:#263238;stroke:#263238;stroke-linecap:round;stroke-linejoin:round;stroke-miterlimit:10;" width="73.56" height="5.994"/>
		<path style="fill:#263238;stroke:#263238;stroke-linecap:round;stroke-linejoin:round;stroke-miterlimit:10;" d="M240.724,451.019
			h136.056l7.859-90.494c0.374-4.309-2.816-7.802-7.125-7.802H257.064c-4.309,0-8.106,3.493-8.48,7.802L240.724,451.019z"/>
		<path style="fill:#B8B8B8;stroke:#263238;stroke-linecap:round;stroke-linejoin:round;stroke-miterlimit:10;" d="M243.333,451.019
			h136.056l7.859-90.494c0.374-4.309-2.816-7.802-7.125-7.802H259.672c-4.309,0-8.106,3.493-8.48,7.802L243.333,451.019z"/>
		<path style="fill:#263238;stroke:#263238;stroke-linecap:round;stroke-linejoin:round;stroke-miterlimit:10;" d="M312.27,399.01
			c0.409-4.711,4.56-8.53,9.271-8.53c4.711,0,8.199,3.819,7.789,8.53c-0.409,4.711-4.56,8.53-9.271,8.53
			C315.348,407.54,311.86,403.721,312.27,399.01z"/>
	</g>
</g>
<g id="Table">
	<line style="fill:none;stroke:#263238;stroke-miterlimit:10;" x1="486.031" y1="457.013" x2="17.421" y2="457.013"/>
</g>
</svg>
